<svg width="512" height="512" viewBox="0 0 512 512" fill="none" xmlns="http://www.w3.org/2000/svg">
  <defs>
    <linearGradient id="bg" x1="68" y1="56" x2="438" y2="454" gradientUnits="userSpaceOnUse">
      <stop stop-color="#102633"/>
      <stop offset="0.58" stop-color="#0B1620"/>
      <stop offset="1" stop-color="#081118"/>
    </linearGradient>
    <radialGradient id="glow" cx="0" cy="0" r="1" gradientUnits="userSpaceOnUse" gradientTransform="translate(178 150) rotate(43.3) scale(296.268)">
      <stop stop-color="#35D07F" stop-opacity="0.26"/>
      <stop offset="0.58" stop-color="#1CB8A4" stop-opacity="0.12"/>
      <stop offset="1" stop-color="#1CB8A4" stop-opacity="0"/>
    </radialGradient>
    <linearGradient id="mark" x1="132" y1="120" x2="372" y2="392" gradientUnits="userSpaceOnUse">
      <stop stop-color="#56F0A2"/>
      <stop offset="0.55" stop-color="#35D07F"/>
      <stop offset="1" stop-color="#12B8D4"/>
    </linearGradient>
    <linearGradient id="spark" x1="312" y1="132" x2="375" y2="199" gradientUnits="userSpaceOnUse">
      <stop stop-color="#FFF2B8"/>
      <stop offset="0.5" stop-color="#FBCC5C"/>
      <stop offset="1" stop-color="#F4A938"/>
    </linearGradient>
    <filter id="shadow" x="14" y="14" width="484" height="484" filterUnits="userSpaceOnUse" color-interpolation-filters="sRGB">
      <feFlood flood-opacity="0" result="BackgroundImageFix"/>
      <feColorMatrix in="SourceAlpha" type="matrix" values="0 0 0 0 0 0 0 0 0 0 0 0 0 0 0 0 0 0 127 0" result="hardAlpha"/>
      <feOffset dy="18"/>
      <feGaussianBlur stdDeviation="18"/>
      <feComposite in2="hardAlpha" operator="out"/>
      <feColorMatrix type="matrix" values="0 0 0 0 0.0117647 0 0 0 0 0.0823529 0 0 0 0 0.141176 0 0 0 0.4 0"/>
      <feBlend mode="normal" in2="BackgroundImageFix" result="effect1_dropShadow_1_1"/>
      <feBlend mode="normal" in="SourceGraphic" in2="effect1_dropShadow_1_1" result="shape"/>
    </filter>
  </defs>

  <g filter="url(#shadow)">
    <rect x="32" y="32" width="448" height="448" rx="112" fill="url(#bg)"/>
    <rect x="32" y="32" width="448" height="448" rx="112" fill="url(#glow)"/>
    <rect x="48" y="48" width="416" height="416" rx="96" stroke="#FFFFFF" stroke-opacity="0.08" stroke-width="2"/>

    <path
      d="M354 140C327.68 115.037 293.533 100 256 100C175.366 100 110 165.366 110 246C110 326.634 175.366 392 256 392C293.533 392 327.68 376.963 354 352"
      stroke="url(#mark)"
      stroke-width="56"
      stroke-linecap="round"
      stroke-linejoin="round"
    />

    <circle cx="359" cy="356" r="14" fill="#35D07F" fill-opacity="0.92"/>

    <path
      d="M344 122L355.769 152.231L386 164L355.769 175.769L344 206L332.231 175.769L302 164L332.231 152.231L344 122Z"
      fill="url(#spark)"
    />
  </g>
</svg>
